<?xml version="1.0" standalone="no"?>
<!DOCTYPE svg PUBLIC "-//W3C//DTD SVG 20010904//EN"
 "http://www.w3.org/TR/2001/REC-SVG-20010904/DTD/svg10.dtd">
<svg version="1.0" xmlns="http://www.w3.org/2000/svg"
 width="200.000000pt" height="200.000000pt" viewBox="0 0 200.000000 200.000000"
 preserveAspectRatio="xMidYMid meet">
<metadata>
Created by potrace 1.16, written by Peter Selinger 2001-2019
</metadata>
<g transform="translate(0.000000,200.000000) scale(0.100000,-0.100000)"
fill="#000000" stroke="none">
<path d="M1120 1815 l0 -65 -60 0 -60 0 0 -125 0 -125 -65 0 -65 0 0 -60 0
-60 -60 0 -60 0 0 -65 0 -65 -65 0 -65 0 0 -60 0 -60 -60 0 -60 0 0 -65 0 -65
-65 0 -65 0 0 -60 0 -60 -60 0 -60 0 0 -130 0 -130 60 0 60 0 0 -60 0 -60 65
0 65 0 0 -65 0 -65 60 0 60 0 0 -60 0 -60 65 0 65 0 0 -65 0 -65 125 0 125 0
0 65 0 65 65 0 65 0 0 125 0 125 60 0 60 0 0 60 0 60 65 0 65 0 0 65 0 65 60
0 60 0 0 60 0 60 125 0 125 0 0 65 0 65 65 0 65 0 0 125 0 125 -65 0 -65 0 0
65 0 65 -60 0 -60 0 0 60 0 60 -65 0 -65 0 0 65 0 65 -60 0 -60 0 0 60 0 60
-65 0 -65 0 0 65 0 65 -65 0 -65 0 0 -65z m130 -125 l0 -59 63 -3 62 -3 3 -62
3 -63 59 0 60 0 0 -60 0 -60 59 0 c33 0 63 -5 66 -11 4 -5 4 -62 0 -125 l-7
-114 -59 0 -59 0 0 60 0 60 -60 0 -60 0 0 -65 0 -65 60 0 60 0 0 -120 0 -119
-62 -3 -63 -3 -3 -62 -3 -63 -59 0 -60 0 0 -60 0 -59 -62 -3 -63 -3 -3 -62 -3
-63 -59 0 -60 0 0 -60 0 -59 -62 -3 -63 -3 -3 -62 -3 -63 -59 0 -60 0 0 65 0
65 -60 0 -60 0 0 60 0 60 -65 0 -65 0 0 65 0 65 -60 0 -60 0 0 120 0 120 60 0
60 0 0 65 0 65 60 0 59 0 3 63 3 62 63 3 62 3 0 59 0 60 65 0 65 0 0 60 0 60
60 0 60 0 0 65 0 65 66 0 66 0 -7 125 -7 125 66 0 66 0 0 -60z"/>
<path d="M1130 1440 l0 -60 60 0 60 0 0 -65 0 -65 65 0 66 0 -3 63 -3 62 -62
3 -63 3 0 59 0 60 -60 0 -60 0 0 -60z"/>
</g>
</svg>
